<svg id="Capa_1" data-name="Capa 1" xmlns="http://www.w3.org/2000/svg" xmlns:xlink="http://www.w3.org/1999/xlink" viewBox="0 0 514 480"><defs><style>.cls-1{fill:url(#Degradado_sin_nombre_28);}.cls-2{fill:url(#Degradado_sin_nombre_38);}.cls-3{fill:url(#Degradado_sin_nombre_45);}.cls-4{fill:url(#Degradado_sin_nombre_31);}.cls-5{fill:url(#Degradado_sin_nombre_28-2);}.cls-6{fill:url(#Degradado_sin_nombre_38-2);}.cls-7{fill:url(#Degradado_sin_nombre_45-2);}.cls-8{fill:url(#Degradado_sin_nombre_31-2);}</style><linearGradient id="Degradado_sin_nombre_28" x1="276.39" y1="355.41" x2="380.34" y2="272.7" gradientUnits="userSpaceOnUse"><stop offset="0" stop-color="#f2f2f2"/><stop offset="0.09" stop-color="#e8e9ec"/><stop offset="0.49" stop-color="#bfc8d4"/><stop offset="0.81" stop-color="#a5b3c5"/><stop offset="1" stop-color="#9cabc0"/></linearGradient><linearGradient id="Degradado_sin_nombre_38" x1="321.99" y1="138.56" x2="371.78" y2="175.23" xlink:href="#Degradado_sin_nombre_28"/><linearGradient id="Degradado_sin_nombre_45" x1="514.55" y1="256.1" x2="412.47" y2="201.52" xlink:href="#Degradado_sin_nombre_28"/><linearGradient id="Degradado_sin_nombre_31" x1="335.5" y1="148.28" x2="470.7" y2="237.23" xlink:href="#Degradado_sin_nombre_28"/><linearGradient id="Degradado_sin_nombre_28-2" x1="28.39" y1="474.48" x2="218.03" y2="323.6" xlink:href="#Degradado_sin_nombre_28"/><linearGradient id="Degradado_sin_nombre_38-2" x1="111.59" y1="78.89" x2="202.42" y2="145.78" xlink:href="#Degradado_sin_nombre_28"/><linearGradient id="Degradado_sin_nombre_45-2" x1="462.87" y1="293.31" x2="276.65" y2="193.73" xlink:href="#Degradado_sin_nombre_28"/><linearGradient id="Degradado_sin_nombre_31-2" x1="136.23" y1="96.61" x2="382.88" y2="258.89" xlink:href="#Degradado_sin_nombre_28"/></defs><path class="cls-1" d="M425.53,358.43S324,351.87,280.85,281.56c0,0,.93-81.56,82.8-105.62C363.65,175.94,303.35,328.43,425.53,358.43Z"/><path class="cls-2" d="M362.09,152.82c-40,36.56-101.24,23.12-101.24,23.12,37.18,36.87,90.93,23.75,90.93,23.75l79.68-64.06S402.09,116.26,362.09,152.82Zm32.34-8.44c15.1-.75,22-3.69,22.48-3.89-.9.69-29.82,22.76-41.83,24.25C375.08,164.74,378.81,145.17,394.43,144.38Z"/><path class="cls-3" d="M488.33,295.62s-42.81,22.19-79.37-8.75-32.49-60.93-32.49-60.93,28.61-50.67,55.86-59.71S474,145.32,474,145.32s4.52,13.38-17.19,32.81c-24.44,21.87-32.18,46.25-31.24,68.75S454.59,307.5,488.33,295.62Z"/><path class="cls-4" d="M514,309.37S468,349.06,398,323.75s-68.75-96.25-68.75-96.25,18.44-48.74,65-76.56S464.9,95.32,464.9,95.32s18.43,13.13,1.87,36.56-71.24,58.75-75.62,108.43S447.09,351.24,514,309.37Z"/><path class="cls-5" d="M300.47,480s-185.28-12-264-140.24c0,0,1.71-148.79,151.07-192.68C187.59,147.08,77.57,425.27,300.47,480Z"/><path class="cls-6" d="M184.74,104.89C111.77,171.59,0,147.08,0,147.08c67.84,67.26,165.89,43.32,165.89,43.32L311.3,73.54S257.71,38.2,184.74,104.89Zm59-15.39c27.54-1.38,40.18-6.74,41-7.1-1.64,1.26-54.41,41.51-76.32,44.23C208.43,126.63,215.24,90.93,243.74,89.5Z"/><path class="cls-7" d="M415.05,365.42s-78.1,40.47-144.8-16S211,238.29,211,238.29s52.21-92.44,101.92-108.93,75.95-38.15,75.95-38.15,8.25,24.41-31.36,59.86c-44.59,39.9-58.71,84.37-57,125.41S353.48,387.08,415.05,365.42Z"/><path class="cls-8" d="M461.8,390.5S378,462.9,250.3,416.72,124.88,241.14,124.88,241.14s33.64-88.93,118.58-139.67S372.29,0,372.29,0s33.64,23.94,3.43,66.7-130,107.17-138,197.81S339.8,466.89,461.8,390.5Z"/></svg>